<svg width="179" height="178" viewBox="0 0 179 178" fill="none" xmlns="http://www.w3.org/2000/svg">
<mask id="mask0_103_11" style="mask-type:luminance" maskUnits="userSpaceOnUse" x="0" y="0" width="179" height="178">
<path d="M178.27 88.95C178.27 138.08 138.36 177.91 89.13 177.91C39.9 177.91 0 138.08 0 88.95C0 39.82 39.9 0 89.13 0C138.36 0 178.27 39.82 178.27 88.95Z" fill="white"/>
</mask>
<g mask="url(#mask0_103_11)">
<path d="M89.68 15.57C50.36 15.57 38.05 53.55 36.86 70.53C35.99 82.89 39.54 106.03 41.54 117.72C42.2 121.56 45.92 124.06 49.72 123.22C58.84 121.19 75.35 118 89.14 118L89.68 15.57Z" fill="#092342"/>
<path d="M89.68 15.57C129 15.57 140.23 53.55 141.42 70.53C142.29 82.89 138.74 106.03 136.74 117.72C136.08 121.56 132.36 124.06 128.56 123.22C119.44 121.19 102.93 118 89.14 118L89.68 15.57Z" fill="#092342"/>
<path d="M92.73 193.91L106.05 193.87L165.96 193.93C165.96 193.93 165.91 189.16 165.52 186.62C165.13 184.08 161.64 161.36 156.7 151.66C152.66 143.71 141.84 136.87 136.93 134.06C135.45 133.21 133.61 133.35 132.27 134.41L92.82 165.36C90.74 166.99 87.83 166.99 85.75 165.36L45.03 133.38C44.5 132.96 43.78 132.86 43.16 133.12C35.99 136.13 26.94 141.69 21.87 151.66C16.93 161.36 13.44 184.08 13.05 186.62C12.66 189.16 12.61 193.93 12.61 193.93L72.55 193.87L85.88 193.91V193.93H89.29H92.7V193.91H92.73Z" fill="#092342"/>
<path d="M60.56 81.06C65.92 97.53 77.12 107.87 89.14 107.87C101.16 107.87 115.71 96.13 119.41 81.06C119.41 81.06 124.13 84.25 127.45 80.55C130.77 76.85 133.07 62.93 126.94 62.81C124.39 62.81 121.45 72.51 118.9 72.51C116.35 72.51 96.05 61.15 96.81 43.66C96.81 43.66 89.53 66.51 72.81 74.43C72.81 74.43 85.82 62.43 87.72 43.41C87.72 43.41 82.95 67.45 60.55 81.07L60.56 81.06Z" fill="white"/>
</g>
</svg>
