<svg width="179" height="178" viewBox="0 0 179 178" fill="none" xmlns="http://www.w3.org/2000/svg">
<mask id="mask0_103_20" style="mask-type:luminance" maskUnits="userSpaceOnUse" x="0" y="0" width="179" height="178">
<path d="M178.27 88.95C178.27 138.08 138.36 177.91 89.13 177.91C39.9 177.91 0 138.08 0 88.95C0 39.82 39.91 0 89.14 0C138.37 0 178.28 39.82 178.28 88.95H178.27Z" fill="white"/>
</mask>
<g mask="url(#mask0_103_20)">
<path d="M96.99 137.29C96.99 137.29 96.18 137.98 94.57 138.59C95.43 138.24 96.25 137.81 96.99 137.29Z" fill="#456FAD"/>
<path d="M13.06 186.61C13.45 184.07 19.2 151.98 20.09 149.01C20.98 146.03 21.44 143.36 24.02 141.7C26.59 140.04 36.88 135.6 44.18 132.69C51.49 129.78 57 127.53 58.37 124.85C57.76 125.72 58.18 129.25 58.59 132.48C58.99 135.71 61.63 151.12 63.35 157.07C65.06 163.02 73.12 188.68 77.58 193.86L12.62 193.92C12.62 193.92 12.67 189.15 13.06 186.61Z" fill="#092342"/>
<path d="M80.99 137.31C70.66 130.38 65.03 116.55 65.03 116.55L63.84 107.95C58.49 99.26 57.54 93.15 57.54 93.15C57.54 93.15 55.94 92.56 53.54 90.75C48.97 87.3 46.88 76.83 51.8 73.62C53.48 72.53 55.84 72.01 56.42 74.56C56.09 73.08 56.05 71.5 55.91 70C55.54 66.05 55.25 62.08 55.03 58.12C54.52 48.66 59.93 22.96 88.58 22.96C107.39 22.96 116.19 32.71 119.12 38.94C122.05 45.17 122.3 52.18 122.56 58.47C122.79 63.95 121.8 72.47 121.55 74.57C121.78 73.66 122.68 72.56 123.92 72.79C131.29 74.14 129.14 85.97 125.67 90.3C123.6 92.89 120.54 93.28 120.57 93.15C118.98 99.96 114.23 107.76 114.23 107.76C113.7 123.94 98.76 136.22 96.97 137.29C98.05 147.91 93.67 150.75 93.67 150.75L100.15 193.81C104.62 188.53 112.63 163.01 114.34 157.07C116.05 151.12 118.7 135.71 119.1 132.48C119.5 129.26 119.92 125.73 119.31 124.85C120.68 127.53 126.19 129.78 133.5 132.69C140.81 135.6 151.09 140.03 153.66 141.7C156.24 143.36 156.69 146.02 157.59 149.01C158.49 151.99 164.23 184.07 164.62 186.61C165.01 189.15 165.06 193.92 165.06 193.92L100.15 193.86L100.17 193.97L89.05 194L77.71 193.97L84.1 150.75C84.1 150.75 79.89 147.92 80.96 137.31H80.99Z" fill="#092342"/>
</g>
</svg>
