<?xml version="1.0" encoding="UTF-8" standalone="no"?>
<!-- Created with Inkscape (http://www.inkscape.org/) -->

<svg
   version="1.1"
   id="svg4434"
   xmlSpace="preserve"
   width="682.66669"
   height="682.66669"
   viewBox="0 0 682.66669 682.66669"
   xmlns="http://www.w3.org/2000/svg"
   xmlnsSvg="http://www.w3.org/2000/svg"><defs
     id="defs4438"><clipPath
       clipPathUnits="userSpaceOnUse"
       id="clipPath4452"><path
         d="M 0,512 H 512 V 0 H 0 Z"
         id="path4450" /></clipPath></defs><g
     id="g4440"
     transform="matrix(1.3333333,0,0,-1.3333333,0,682.66667)"><g
       id="g4442"
       transform="translate(411.2124,259.2891)"><path
         d="M 0,0 -198.42,-202.098"
         style="fill:none;stroke:#000000;stroke-width:15;stroke-linecap:round;stroke-linejoin:round;stroke-miterlimit:10;stroke-dasharray:none;stroke-opacity:1"
         id="path4444" /></g><g
       id="g4446"><g
         id="g4448"
         clip-path="url(#clipPath4452)"><g
           id="g4454"
           transform="translate(329.6191,474.708)"><path
             d="M 0,0 17.534,17.858 C 27.827,28.342 44.688,28.521 55.2,18.259 L 166.773,-90.669"
             style="fill:none;stroke:#000000;stroke-width:15;stroke-linecap:round;stroke-linejoin:round;stroke-miterlimit:10;stroke-dasharray:none;stroke-opacity:1"
             id="path4456" /></g><g
           id="g4458"
           transform="translate(460.4551,419.125)"><path
             d="m 0,0 -75.629,73.835 c -10.515,10.266 -27.384,10.086 -37.68,-0.399"
             style="fill:none;stroke:#000000;stroke-width:15;stroke-linecap:round;stroke-linejoin:round;stroke-miterlimit:10;stroke-dasharray:none;stroke-opacity:1"
             id="path4460" /></g><g
           id="g4462"
           transform="translate(374.0972,295.5244)"><path
             d="M 0,0 37.115,-36.235"
             style="fill:none;stroke:#000000;stroke-width:15;stroke-linecap:round;stroke-linejoin:round;stroke-miterlimit:10;stroke-dasharray:none;stroke-opacity:1"
             id="path4464" /></g><g
           id="g4466"
           transform="translate(478.6899,328.0176)"><path
             d="M 0,0 18.106,18.441 C 28.401,28.928 28.224,45.75 17.709,56.016 L -24.229,96.959 -45.873,74.915"
             style="fill:none;stroke:#000000;stroke-width:15;stroke-linecap:round;stroke-linejoin:round;stroke-miterlimit:10;stroke-dasharray:none;stroke-opacity:1"
             id="path4468" /></g><g
           id="g4470"
           transform="translate(374.0972,295.5244)"><path
             d="M 0,0 37.115,-36.235 71.873,-0.834"
             style="fill:none;stroke:#000000;stroke-width:15;stroke-linecap:round;stroke-linejoin:round;stroke-miterlimit:10;stroke-dasharray:none;stroke-opacity:1"
             id="path4472" /></g><g
           id="g4474"
           transform="translate(38.791,175.458)"><path
             d="m 0,0 -26.563,-38.91 c -8.289,-12.142 -5.149,-28.677 7.011,-36.927 l 129.012,-87.525 c 12.155,-8.246 28.721,-5.094 37.006,7.043 l 243.246,356.313 c 8.289,12.142 5.15,28.677 -7.011,36.927 l -129.012,87.525 c -12.155,8.246 -28.721,5.094 -37.006,-7.042 L 22.445,32.879"
             style="fill:none;stroke:#000000;stroke-width:15;stroke-linecap:round;stroke-linejoin:round;stroke-miterlimit:10;stroke-dasharray:none;stroke-opacity:1"
             id="path4476" /></g><g
           id="g4478"
           transform="translate(255.4687,492.8545)"><path
             d="m 0,0 -68.889,-100.911 173.039,-117.396 68.89,100.911 c 8.287,12.14 5.148,28.667 -7.009,36.916 L 37.019,7.045 C 24.861,15.293 8.287,12.139 0,0 Z"
             style="fill:none;stroke:#000000;stroke-width:15;stroke-linecap:round;stroke-linejoin:round;stroke-miterlimit:10;stroke-dasharray:none;stroke-opacity:1"
             id="path4480" /></g><g
           id="g4482"
           transform="translate(242.4209,401.5391)"><path
             d="M 0,0 39.588,57.989"
             style="fill:none;stroke:#000000;stroke-width:15;stroke-linecap:round;stroke-linejoin:round;stroke-miterlimit:10;stroke-dasharray:none;stroke-opacity:1"
             id="path4484" /></g><g
           id="g4486"
           transform="translate(270.3184,382.6123)"><path
             d="M 0,0 27.32,40.019"
             style="fill:none;stroke:#000000;stroke-width:15;stroke-linecap:round;stroke-linejoin:round;stroke-miterlimit:10;stroke-dasharray:none;stroke-opacity:1"
             id="path4488" /></g><g
           id="g4490"
           transform="translate(127.2744,85.3184)"><path
             d="M 0,0 131.268,192.284"
             style="fill:none;stroke:#000000;stroke-width:15;stroke-linecap:round;stroke-linejoin:round;stroke-miterlimit:10;stroke-dasharray:none;stroke-opacity:1"
             id="path4492" /></g><g
           id="g4494"
           transform="translate(161.022,62.4238)"><path
             d="M 0,0 89.556,131.185"
             style="fill:none;stroke:#000000;stroke-width:15;stroke-linecap:round;stroke-linejoin:round;stroke-miterlimit:10;stroke-dasharray:none;stroke-opacity:1"
             id="path4496" /></g><g
           id="g4498"
           transform="translate(166.522,215.1377)"><path
             d="M 0,0 58.273,85.36"
             style="fill:none;stroke:#000000;stroke-width:15;stroke-linecap:round;stroke-linejoin:round;stroke-miterlimit:10;stroke-dasharray:none;stroke-opacity:1"
             id="path4500" /></g><g
           id="g4502"
           transform="translate(128.7935,159.8721)"><path
             d="m 0,0 -22.083,-32.347 c -7.281,-10.667 -21.841,-13.437 -32.524,-6.19 -10.689,7.252 -13.448,21.784 -6.163,32.456 l 22.082,32.348 c 7.282,10.666 21.842,13.437 32.525,6.189 C 4.526,25.204 7.285,10.672 0,0 Z"
             style="fill:none;stroke:#000000;stroke-width:15;stroke-linecap:round;stroke-linejoin:round;stroke-miterlimit:10;stroke-dasharray:none;stroke-opacity:1"
             id="path4504" /></g><g
           id="g4506"
           transform="translate(289.1118,322.3828)"><path
             d="m 0,0 70.507,-47.835 68.889,100.911 c 8.288,12.14 5.149,28.667 -7.008,36.915 l -48.494,32.9 z"
             style="fill:none;stroke:#000000;stroke-width:15;stroke-linecap:round;stroke-linejoin:round;stroke-miterlimit:10;stroke-dasharray:none;stroke-opacity:1"
             id="path4508" /></g><g
           id="g4510"
           transform="translate(335.373,334.2363)"><path
             d="M 0,0 18.333,-12.438"
             style="fill:none;stroke:#000000;stroke-width:15;stroke-linecap:round;stroke-linejoin:round;stroke-miterlimit:10;stroke-dasharray:none;stroke-opacity:1"
             id="path4512" /></g><g
           id="g4514"
           transform="translate(349.8882,355.499)"><path
             d="M 0,0 18.333,-12.438"
             style="fill:none;stroke:#000000;stroke-width:15;stroke-linecap:round;stroke-linejoin:round;stroke-miterlimit:10;stroke-dasharray:none;stroke-opacity:1"
             id="path4516" /></g><g
           id="g4518"
           transform="translate(364.4033,376.7607)"><path
             d="M 0,0 18.333,-12.438"
             style="fill:none;stroke:#000000;stroke-width:15;stroke-linecap:round;stroke-linejoin:round;stroke-miterlimit:10;stroke-dasharray:none;stroke-opacity:1"
             id="path4520" /></g><g
           id="g4522"
           transform="translate(378.9185,398.0234)"><path
             d="M 0,0 18.333,-12.438"
             style="fill:none;stroke:#000000;stroke-width:15;stroke-linecap:round;stroke-linejoin:round;stroke-miterlimit:10;stroke-dasharray:none;stroke-opacity:1"
             id="path4524" /></g></g></g></g></svg>
