<?xml version="1.0" encoding="UTF-8" standalone="no"?>
<!-- Created with Inkscape (http://www.inkscape.org/) -->

<svg
   version="1.1"
   id="svg4533"
   xmlSpace="preserve"
   width="682.66669"
   height="682.66669"
   viewBox="0 0 682.66669 682.66669"
   xmlns="http://www.w3.org/2000/svg"
   xmlnsSvg="http://www.w3.org/2000/svg"><defs
     id="defs4537"><clipPath
       clipPathUnits="userSpaceOnUse"
       id="clipPath4547"><path
         d="M 0,512 H 512 V 0 H 0 Z"
         id="path4545" /></clipPath></defs><g
     id="g4539"
     transform="matrix(1.3333333,0,0,-1.3333333,0,682.66667)"><g
       id="g4541"><g
         id="g4543"
         clip-path="url(#clipPath4547)"><g
           id="g4549"
           transform="translate(77.2153,480.1533)"><path
             d="m 0,0 c -41.862,-28.478 -69.715,-79.142 -69.715,-136.899 0,-219.654 248.494,-335.754 248.494,-335.754 0,0 246.073,114.466 248.495,335.754 0.975,89.047 -66.218,161.246 -147.901,161.246 -38.854,0 -74.201,-16.342 -100.594,-43.054 -26.393,26.712 -61.739,43.054 -100.593,43.054 -14.353,0 -28.228,-2.23 -41.352,-6.387"
             style="fill:none;stroke:#000000;stroke-width:15;stroke-linecap:round;stroke-linejoin:round;stroke-miterlimit:10;stroke-dasharray:none;stroke-opacity:1"
             id="path4551" /></g><g
           id="g4553"
           transform="translate(328.209,155.6133)"><path
             d="m 0,0 c 5.581,7.197 9.022,16.124 9.337,25.798 0.645,19.812 -11.611,36.847 -29.008,43.354 -4.935,1.847 -8.217,6.549 -8.211,11.82 v 0.098 c 0,24.683 -20.009,44.692 -44.691,44.692 -24.682,0 -44.691,-20.009 -44.691,-44.692 0,-0.261 0.002,-0.523 0.007,-0.784 0.09,-5.06 -2.917,-9.685 -7.606,-11.591 -16.842,-6.843 -28.568,-23.651 -27.844,-43.112 0.87,-23.334 19.917,-42.247 43.256,-42.963 6.871,-0.211 13.404,1.131 19.279,3.701 11.749,5.14 25.22,5.139 36.97,-10e-4 5.869,-2.567 12.397,-3.909 19.263,-3.701"
             style="fill:none;stroke:#000000;stroke-width:15;stroke-linecap:round;stroke-linejoin:round;stroke-miterlimit:10;stroke-dasharray:none;stroke-opacity:1"
             id="path4555" /></g><g
           id="g4557"
           transform="translate(243.4087,355.707)"><path
             d="m 0,0 c 7.819,-25.819 -2.097,-51.673 -22.148,-57.745 -20.052,-6.072 -42.645,9.935 -50.464,35.756 -7.82,25.819 2.097,51.673 22.148,57.745 C -30.412,41.828 -7.819,25.819 0,0 Z"
             style="fill:none;stroke:#000000;stroke-width:15;stroke-linecap:round;stroke-linejoin:round;stroke-miterlimit:10;stroke-dasharray:none;stroke-opacity:1"
             id="path4559" /></g><g
           id="g4561"
           transform="translate(178.2817,282.6807)"><path
             d="m 0,0 c 10.28,-20.257 5.86,-43.15 -9.871,-51.135 -15.732,-7.983 -36.818,1.967 -47.098,22.224 -10.281,20.258 -5.861,43.151 9.87,51.135 C -31.367,30.207 -10.28,20.257 0,0 Z"
             style="fill:none;stroke:#000000;stroke-width:15;stroke-linecap:round;stroke-linejoin:round;stroke-miterlimit:10;stroke-dasharray:none;stroke-opacity:1"
             id="path4563" /></g><g
           id="g4565"
           transform="translate(268.5908,356.7461)"><path
             d="M 0,0 C -7.818,-25.819 2.098,-51.673 22.149,-57.745 42.2,-63.817 64.794,-47.809 72.613,-21.989 80.432,3.83 70.516,29.684 50.464,35.756 30.413,41.828 7.819,25.819 0,0 Z"
             style="fill:none;stroke:#000000;stroke-width:15;stroke-linecap:round;stroke-linejoin:round;stroke-miterlimit:10;stroke-dasharray:none;stroke-opacity:1"
             id="path4567" /></g><g
           id="g4569"
           transform="translate(333.7187,283.7197)"><path
             d="m 0,0 c -10.28,-20.257 -5.861,-43.15 9.871,-51.134 15.732,-7.983 36.817,1.966 47.098,22.224 10.28,20.257 5.86,43.15 -9.871,51.134 C 31.366,30.207 10.279,20.257 0,0 Z"
             style="fill:none;stroke:#000000;stroke-width:15;stroke-linecap:round;stroke-linejoin:round;stroke-miterlimit:10;stroke-dasharray:none;stroke-opacity:1"
             id="path4571" /></g></g></g></g></svg>
