<svg id="Capa_1" enable-background="new 0 0 512 512" height="512" viewBox="0 0 512 512" width="512" xmlns="http://www.w3.org/2000/svg"><g><path d="m401.16 40.539h-100.794c-5.523 0-10 4.478-10 10s4.477 10 10 10h100.794c24.273 0 47.083 9.446 64.229 26.602 17.16 17.16 26.611 39.97 26.611 64.228 0 50.089-40.75 90.84-90.84 90.84h-118.108c-1.892-15.093-15.027-27.453-30.466-27.318-15.491.038-28.777 11.852-30.37 27.318h-111.376c-24.267 0-47.077-9.45-64.229-26.611-17.16-17.16-26.611-39.971-26.611-64.229 0-50.084 40.75-90.83 90.84-90.83h100.877c5.523 0 10-4.478 10-10s-4.477-10-10-10h-100.877c-61.117 0-110.84 49.718-110.84 110.83 0 29.601 11.531 57.433 32.467 78.369 20.928 20.939 48.761 32.471 78.373 32.471h111.208l.007 58.765c-19.026 4.223-33.059 20.11-33.059 39.937v43.027c0 10.503 3.971 20.558 10.898 27.604l35.13 36.821c3.813 3.996 10.143 4.145 14.138.332 3.996-3.812 4.145-10.143.333-14.139l-35.187-36.88c-.041-.043-.083-.085-.125-.128-3.297-3.335-5.188-8.296-5.188-13.61v-43.028c0-8.568 5.117-16.001 13.057-19.095v16.835c0 5.522 4.477 10 10 10s10-4.478 10-10l-.003-113.159c-.005-6.77 5.342-10.516 10.398-10.604 5.988-.138 10.839 5.315 10.839 11.134v71.584c0 5.522 4.477 10 10 10s10-4.478 10-10c0-6.301 4.523-10.598 10.778-10.611 5.764.058 10.454 4.942 10.454 10.889v9.669c0 5.339 4.194 9.736 9.528 9.989 5.349.231 9.924-3.731 10.428-9.046.655-6.92 4.134-10.765 11.083-11.556 5.666.234 10.204 4.906 10.204 10.612v16.279c0 5.339 4.194 9.736 9.528 9.989 5.361.232 9.924-3.731 10.428-9.046.725-7.654 3.645-10.729 11.093-11.556 5.659.225 10.193 4.899 10.193 10.612v33.164c0 18.621-4.38 37.273-12.671 53.949l-12.934 26.072c-2.454 4.948-.432 10.948 4.516 13.402 1.428.708 2.943 1.043 4.435 1.043 3.68 0 7.221-2.039 8.967-5.559l12.929-26.062c9.655-19.42 14.758-41.151 14.758-62.846v-33.162c0-16.885-13.737-30.621-30.621-30.621-4.277 0-8.917 1.272-12.814 2.966-4.527-11.258-15.565-19.234-28.429-19.245-5.223 0-10.94 1.767-15.47 4.307-5.395-8.467-14.761-14.137-25.381-14.241-3.862-.053-7.557.553-11 1.749v-26.535h117.872c61.117 0 110.84-49.723 110.84-110.84 0-29.601-11.531-57.433-32.467-78.369-20.922-20.934-48.755-32.462-78.373-32.462z"/><path d="m304.063 99.943h-23.263c-5.523 0-10 4.478-10 10v80.085c0 5.474 4.593 10 10.044 10 .002 0 21.386-.096 27.281-.096 17.4 0 31.556-14.156 31.556-31.556 0-9.914-4.6-18.77-11.772-24.56 2.893-4.451 4.581-9.754 4.581-15.446.001-15.674-12.752-28.427-28.427-28.427zm0 20c4.647 0 8.428 3.78 8.428 8.428s-3.781 8.428-8.428 8.428c-1.712 0-13.263.021-13.263.021v-16.877zm4.062 59.99c-3.189 0-10.898.028-17.325.054v-23.148c1.609-.006 17.325-.018 17.325-.018 6.372 0 11.556 5.185 11.556 11.557s-5.183 11.555-11.556 11.555z"/><path d="m116.76 180.028c-7.962 0-15.625-3.21-20.498-8.587-3.708-4.092-10.034-4.401-14.125-.694-4.092 3.709-4.403 10.033-.694 14.126 8.601 9.489 21.803 15.155 35.317 15.155 16.873 0 31.041-10.767 33.689-25.6 1.993-11.162-3.075-25.743-23.274-33.193-9.838-3.63-18.998-7.581-21.808-8.812-2.185-1.756-2.112-4.203-1.965-5.223.203-1.415 1.231-4.875 6.377-6.425 11.288-3.401 21.755 4.861 22.049 5.098 4.228 3.505 10.5 2.945 14.038-1.264 3.554-4.228 3.007-10.536-1.22-14.09-.756-.636-18.762-15.482-40.635-8.895-11.052 3.329-18.871 12.04-20.406 22.732-1.398 9.734 3.272 21.721 12.736 25.944.464.206 11.492 5.115 23.912 9.696 3.514 1.296 11.571 4.954 10.507 10.915-.799 4.483-6.255 9.117-14 9.117z"/><path d="m395.138 180.028c-7.962 0-15.625-3.21-20.498-8.587-3.708-4.092-10.033-4.401-14.125-.694-4.092 3.709-4.403 10.033-.694 14.126 8.601 9.489 21.803 15.155 35.317 15.155 16.873 0 31.041-10.767 33.689-25.6 1.993-11.162-3.075-25.743-23.274-33.193-9.838-3.63-18.998-7.581-21.808-8.812-2.185-1.756-2.111-4.203-1.965-5.223.203-1.415 1.231-4.875 6.377-6.425 11.293-3.401 21.756 4.86 22.05 5.098 4.228 3.505 10.5 2.945 14.038-1.264 3.554-4.228 3.007-10.536-1.22-14.09-.756-.635-18.763-15.483-40.636-8.895-11.052 3.329-18.871 12.04-20.406 22.733-1.44 10.032 2.909 19.684 11.349 25.188 2.611 1.462 11.106 5.081 25.3 10.452 3.514 1.296 11.571 4.954 10.506 10.914-.8 4.483-6.256 9.117-14 9.117z"/><path d="m181.109 99.943c-5.523 0-10 4.478-10 10v55.107c0 12.081 5.78 21.899 17.179 29.183 11.198 7.155 26.044 7.656 37.873 1.699 17.022-8.573 20.595-21.558 20.595-30.94v-55.049c0-5.522-4.477-10-10-10s-10 4.478-10 10v55.049c0 3.84-1.09 8.796-9.591 13.077-5.576 2.809-12.809 2.697-18.109-.689-6.596-4.214-7.947-7.977-7.947-12.329v-55.107c0-5.523-4.477-10.001-10-10.001z"/><path d="m247.69 56.089c2.988 4.566 9.354 5.751 13.86 2.76 4.552-3.021 5.767-9.327 2.76-13.859-3.012-4.541-9.338-5.773-13.86-2.761-4.536 3.02-5.778 9.331-2.76 13.86z"/></g></svg>