<svg width="21" height="21" viewBox="0 0 21 21" fill="none" xmlns="http://www.w3.org/2000/svg">
<path d="M0.366619 9.97639C0.611063 9.73333 0.922173 9.60605 1.29995 9.59456C1.67773 9.58395 1.98884 9.70018 2.23328 9.94325L8.76662 16.4398L8.76662 1.62368C8.76662 1.24803 8.89462 0.932923 9.15062 0.678364C9.40573 0.424689 9.72217 0.297852 10.1 0.297852C10.4777 0.297852 10.7946 0.424689 11.0506 0.678364C11.3057 0.932923 11.4333 1.24803 11.4333 1.62368L11.4333 16.4398L17.9666 9.94325C18.2111 9.70018 18.5222 9.58395 18.9 9.59456C19.2777 9.60605 19.5888 9.73333 19.8333 9.97639C20.0777 10.2195 20.2 10.5288 20.2 10.9045C20.2 11.2801 20.0777 11.5895 19.8333 11.8326L11.0333 20.583C10.9222 20.7156 10.7835 20.8097 10.6173 20.8654C10.4502 20.9202 10.2777 20.9476 10.1 20.9476C9.92217 20.9476 9.75551 20.9202 9.59995 20.8654C9.4444 20.8097 9.29995 20.7156 9.16662 20.583L0.366619 11.8326C0.122173 11.5895 -4.94594e-05 11.2801 -4.94639e-05 10.9045C-4.94684e-05 10.5288 0.122173 10.2195 0.366619 9.97639Z" fill="#EE0202"/>
</svg>
