<svg width="21" height="21" viewBox="0 0 21 21" fill="none" xmlns="http://www.w3.org/2000/svg">
<path d="M19.8333 11.2692C19.5889 11.5123 19.2778 11.6396 18.9 11.651C18.5222 11.6617 18.2111 11.5454 17.9667 11.3024L11.4333 4.8058L11.4333 19.6219C11.4333 19.9976 11.3053 20.3127 11.0493 20.5672C10.7942 20.8209 10.4778 20.9478 10.1 20.9478C9.72222 20.9478 9.40533 20.8209 9.14933 20.5672C8.89422 20.3127 8.76667 19.9976 8.76667 19.6219L8.76667 4.8058L2.23333 11.3024C1.98889 11.5454 1.67778 11.6617 1.3 11.651C0.922222 11.6396 0.61111 11.5123 0.366666 11.2692C0.122221 11.0261 -4.49742e-07 10.7168 -4.66255e-07 10.3411C-4.82768e-07 9.96548 0.122221 9.65612 0.366666 9.41305L9.16667 0.66259C9.27778 0.530008 9.41644 0.435873 9.58267 0.380188C9.74978 0.325386 9.92222 0.297987 10.1 0.297987C10.2778 0.297987 10.4444 0.325386 10.6 0.380188C10.7556 0.435873 10.9 0.530008 11.0333 0.66259L19.8333 9.41305C20.0778 9.65612 20.2 9.96548 20.2 10.3411C20.2 10.7168 20.0778 11.0261 19.8333 11.2692Z" fill="#0FA958"/>
</svg>
