<svg width="20" height="20" viewBox="0 0 25 25" fill="none" xmlns="http://www.w3.org/2000/svg">
<path d="M11.3516 16.7734C11.4613 16.8833 11.5229 17.0322 11.5229 17.1875C11.5229 17.3428 11.4613 17.4917 11.3516 17.6016L8.22656 20.7266C8.1167 20.8363 7.96778 20.8979 7.8125 20.8979C7.65723 20.8979 7.5083 20.8363 7.39844 20.7266L4.27344 17.6016C4.16994 17.4905 4.11359 17.3436 4.11627 17.1918C4.11895 17.04 4.18044 16.8951 4.2878 16.7878C4.39515 16.6804 4.53998 16.6189 4.69178 16.6163C4.84358 16.6136 4.99049 16.6699 5.10156 16.7734L7.22656 18.8975V4.6875C7.22656 4.5321 7.2883 4.38306 7.39818 4.27318C7.50807 4.16329 7.6571 4.10156 7.8125 4.10156C7.9679 4.10156 8.11694 4.16329 8.22682 4.27318C8.33671 4.38306 8.39844 4.5321 8.39844 4.6875V18.8975L10.5234 16.7734C10.6333 16.6637 10.7822 16.6021 10.9375 16.6021C11.0928 16.6021 11.2417 16.6637 11.3516 16.7734ZM20.7266 7.39844L17.6016 4.27344C17.4917 4.16371 17.3428 4.10208 17.1875 4.10208C17.0322 4.10208 16.8833 4.16371 16.7734 4.27344L13.6484 7.39844C13.5449 7.50951 13.4886 7.65642 13.4913 7.80822C13.4939 7.96002 13.5554 8.10485 13.6628 8.2122C13.7702 8.31956 13.915 8.38105 14.0668 8.38373C14.2186 8.38641 14.3655 8.33006 14.4766 8.22656L16.6016 6.10254V20.3125C16.6016 20.4679 16.6633 20.6169 16.7732 20.7268C16.8831 20.8367 17.0321 20.8984 17.1875 20.8984C17.3429 20.8984 17.4919 20.8367 17.6018 20.7268C17.7117 20.6169 17.7734 20.4679 17.7734 20.3125V6.10254L19.8984 8.22656C20.0095 8.33006 20.1564 8.38641 20.3082 8.38373C20.46 8.38105 20.6049 8.31956 20.7122 8.2122C20.8196 8.10485 20.8811 7.96002 20.8837 7.80822C20.8864 7.65642 20.8301 7.50951 20.7266 7.39844Z" fill="black"/>
</svg>
